<?xml version="1.0" encoding="UTF-8"?>
<svg width="200" height="200" viewBox="0 0 200 200" xmlns="http://www.w3.org/2000/svg">
  <!-- Pineapple Body -->
  <circle cx="100" cy="100" r="70" fill="#FFC107"/>
  
  <!-- Pineapple Texture (Diamond Pattern) -->
  <g transform="translate(100, 100)">
    <g fill="#FFB300" stroke="#F57F17" stroke-width="0.5">
      <!-- Central diamond grid -->
      <path d="M-20,0 L-10,-17.32 L10,-17.32 L20,0 L10,17.32 L-10,17.32 Z"/>
      <path d="M-40,0 L-30,-17.32 L-10,-17.32 L0,0 L-10,17.32 L-30,17.32 Z"/>
      <path d="M40,0 L30,-17.32 L10,-17.32 L20,0 L10,17.32 L30,17.32 Z"/>
      <path d="M-20,34.64 L-10,17.32 L10,17.32 L20,34.64 L10,51.96 L-10,51.96 Z"/>
      <path d="M-20,-34.64 L-10,-51.96 L10,-51.96 L20,-34.64 L10,-17.32 L-10,-17.32 Z"/>
      
      <!-- Outer diamonds -->
      <path d="M-60,0 L-50,-17.32 L-30,-17.32 L-40,0 L-30,17.32 L-50,17.32 Z"/>
      <path d="M60,0 L50,-17.32 L30,-17.32 L40,0 L30,17.32 L50,17.32 Z"/>
      <path d="M-40,34.64 L-30,17.32 L-10,17.32 L0,34.64 L-10,51.96 L-30,51.96 Z"/>
      <path d="M40,34.64 L30,17.32 L10,17.32 L20,34.64 L10,51.96 L30,51.96 Z"/>
      <path d="M-40,-34.64 L-30,-51.96 L-10,-51.96 L0,-34.64 L-10,-17.32 L-30,-17.32 Z"/>
      <path d="M40,-34.64 L30,-51.96 L10,-51.96 L20,-34.64 L10,-17.32 L30,-17.32 Z"/>
    </g>
  </g>
  
  <!-- Pineapple Leaves -->
  <g transform="translate(100, 30)">
    <path d="M-30,-20 C-30,-40 -20,-60 0,-70 C20,-60 30,-40 30,-20 L20,0 C10,-10 0,-10 -10,0 Z" fill="#4CAF50"/>
    <path d="M-20,-10 C-20,-30 -10,-50 0,-60 C10,-50 20,-30 20,-10 L10,10 C5,0 0,0 -5,10 Z" fill="#66BB6A"/>
    <path d="M-10,0 C-10,-20 0,-30 0,-30 C0,-30 10,-20 10,0 L5,20 C2.5,10 0,10 -2.5,20 Z" fill="#81C784"/>
  </g>
  
  <!-- Leaf Details -->
  <g transform="translate(100, 30)" stroke="#388E3C" stroke-width="0.5" fill="none">
    <path d="M-25,-25 C-20,-35 -15,-45 -10,-55"/>
    <path d="M25,-25 C20,-35 15,-45 10,-55"/>
    <path d="M-15,-15 C-10,-25 -5,-35 0,-45"/>
    <path d="M15,-15 C10,-25 5,-35 0,-45"/>
  </g>
</svg> 