<?xml version="1.0" encoding="UTF-8"?>
<svg width="200" height="200" viewBox="0 0 200 200" xmlns="http://www.w3.org/2000/svg">
  <!-- Внешняя часть арбуза (зеленая кожура с полосками) -->
  <circle cx="100" cy="100" r="90" fill="#2E8B57"/>
  <!-- Светлые полоски -->
  <path d="M100,10 A90,90 0 0,1 190,100 A90,90 0 0,1 100,190 A90,90 0 0,1 10,100 A90,90 0 0,1 100,10 M100,30 A70,70 0 0,0 170,100 A70,70 0 0,0 100,170 A70,70 0 0,0 30,100 A70,70 0 0,0 100,30" fill="#90EE90"/>
  <!-- Красная мякоть -->
  <circle cx="100" cy="100" r="70" fill="#FF4040"/>
  <!-- Семечки -->
  <circle cx="80" cy="80" r="4" fill="#1C2526"/>
  <circle cx="120" cy="80" r="4" fill="#1C2526"/>
  <circle cx="70" cy="120" r="4" fill="#1C2526"/>
  <circle cx="130" cy="120" r="4" fill="#1C2526"/>
  <circle cx="100" cy="140" r="4" fill="#1C2526"/>
</svg>