<?xml version="1.0" encoding="UTF-8"?>
<svg width="200" height="200" viewBox="0 0 200 200" xmlns="http://www.w3.org/2000/svg">
  <!-- Центральный круг взрыва (яркое ядро) -->
  <circle cx="100" cy="100" r="30" fill="url(#coreGradient)" stroke="none" />
  
  <!-- Радиальный градиент для ядра взрыва -->
  <defs>
    <radialGradient id="coreGradient" cx="50%" cy="50%" r="50%">
      <stop offset="0%" style="stop-color:#ffdd00;stop-opacity:1" />
      <stop offset="70%" style="stop-color:#ff6600;stop-opacity:0.8" />
      <stop offset="100%" style="stop-color:#ff0000;stop-opacity:0" />
    </radialGradient>
    
    <!-- Градиент для лучей -->
    <radialGradient id="rayGradient" cx="50%" cy="50%" r="50%">
      <stop offset="0%" style="stop-color:#ff9900;stop-opacity:0.9" />
      <stop offset="100%" style="stop-color:#ff3300;stop-opacity:0" />
    </radialGradient>
    
    <!-- Градиент для дыма -->
    <radialGradient id="smokeGradient" cx="50%" cy="50%" r="50%">
      <stop offset="0%" style="stop-color:#666666;stop-opacity:0.5" />
      <stop offset="100%" style="stop-color:#333333;stop-opacity:0" />
    </radialGradient>
  </defs>
  
  <!-- Радиальные лучи взрыва -->
  <g transform="translate(100, 100)">
    <path d="M0,0 L60,10 A60,60 0 0,1 55,-15 Z" fill="url(#rayGradient)" opacity="0.7" />
    <path d="M0,0 L60,-10 A60,60 0 0,0 55,15 Z" fill="url(#rayGradient)" opacity="0.7" transform="rotate(45)" />
    <path d="M0,0 L60,10 A60,60 0 0,1 55,-15 Z" fill="url(#rayGradient)" opacity="0.7" transform="rotate(90)" />
    <path d="M0,0 L60,-10 A60,60 0 0,0 55,15 Z" fill="url(#rayGradient)" opacity="0.7" transform="rotate(135)" />
    <path d="M0,0 L60,10 A60,60 0 0,1 55,-15 Z" fill="url(#rayGradient)" opacity="0.7" transform="rotate(180)" />
    <path d="M0,0 L60,-10 A60,60 0 0,0 55,15 Z" fill="url(#rayGradient)" opacity="0.7" transform="rotate(225)" />
    <path d="M0,0 L60,10 A60,60 0 0,1 55,-15 Z" fill="url(#rayGradient)" opacity="0.7" transform="rotate(270)" />
    <path d="M0,0 L60,-10 A60,60 0 0,0 55,15 Z" fill="url(#rayGradient)" opacity="0.7" transform="rotate(315)" />
  </g>
  
  <!-- Частицы взрыва (маленькие круги) -->
  <circle cx="140" cy="80" r="5" fill="#ff6600" opacity="0.6" />
  <circle cx="120" cy="140" r="4" fill="#ff9900" opacity="0.5" />
  <circle cx="80" cy="60" r="6" fill="#ff3300" opacity="0.7" />
  <circle cx="60" cy="120" r="3" fill="#ffcc00" opacity="0.5" />
  <circle cx="150" cy="110" r="4" fill="#ff5500" opacity="0.6" />
  
  <!-- Дым вокруг взрыва -->
  <circle cx="100" cy="100" r="50" fill="url(#smokeGradient)" opacity="0.4" />
  <circle cx="110" cy="90" r="40" fill="url(#smokeGradient)" opacity="0.3" />
  <circle cx="90" cy="110" r="45" fill="url(#smokeGradient)" opacity="0.35" />
</svg>